<svg width="67" height="67" viewBox="0 0 67 67" fill="none" xmlns="http://www.w3.org/2000/svg">
<rect width="67" height="67" rx="15" fill="#4570E0"/>
<path d="M17.355 45.58C17.0983 45.86 16.7717 46 16.375 46C15.9783 46 15.64 45.86 15.36 45.58C15.1033 45.3 14.975 44.9733 14.975 44.6V21.85C14.975 21.4767 15.1033 21.15 15.36 20.87C15.64 20.59 15.9783 20.45 16.375 20.45C16.7717 20.45 17.0983 20.59 17.355 20.87C17.635 21.15 17.775 21.4767 17.775 21.85V31.79C17.775 31.8133 17.7867 31.825 17.81 31.825H17.88L27.365 21.675C28.135 20.8583 29.08 20.45 30.2 20.45C30.5267 20.45 30.7483 20.6017 30.865 20.905C31.005 21.185 30.9583 21.4417 30.725 21.675L20.505 32.49C20.365 32.63 20.3533 32.77 20.47 32.91L31.11 44.74C31.32 44.9733 31.355 45.2417 31.215 45.545C31.075 45.8483 30.8533 46 30.55 46C29.4067 46 28.4733 45.58 27.75 44.74L17.88 33.575C17.8567 33.5517 17.8333 33.54 17.81 33.54C17.7867 33.54 17.775 33.5633 17.775 33.61V44.6C17.775 44.9733 17.635 45.3 17.355 45.58ZM35.386 42.675L47.811 22.9L47.846 22.865V22.83C47.846 22.8067 47.8343 22.795 47.811 22.795H35.946C35.6427 22.795 35.3743 22.6783 35.141 22.445C34.9077 22.2117 34.791 21.9317 34.791 21.605C34.791 21.3017 34.896 21.0333 35.106 20.8C35.3393 20.5667 35.6193 20.45 35.946 20.45H49.946C50.2727 20.45 50.541 20.5667 50.751 20.8C50.9843 21.0333 51.101 21.3017 51.101 21.605C51.101 22.4683 50.9027 23.1917 50.506 23.775L38.081 43.55L38.046 43.585V43.62C38.046 43.6433 38.0577 43.655 38.081 43.655H49.946C50.2493 43.655 50.5177 43.7717 50.751 44.005C50.9843 44.2383 51.101 44.5183 51.101 44.845C51.101 45.1483 50.9843 45.4167 50.751 45.65C50.541 45.8833 50.2727 46 49.946 46H35.946C35.6193 46 35.3393 45.8833 35.106 45.65C34.896 45.4167 34.791 45.1483 34.791 44.845C34.791 43.9817 34.9893 43.2583 35.386 42.675Z" fill="white"/>
</svg>
